<svg width="25" height="24" viewBox="0 0 25 24" fill="none" xmlns="http://www.w3.org/2000/svg">
<path d="M21.176 17.1449C20.8432 17.9135 20.4494 18.6211 19.9932 19.2715C19.3712 20.1583 18.862 20.7721 18.4695 21.113C17.8611 21.6724 17.2093 21.959 16.5113 21.9753C16.0102 21.9753 15.4059 21.8327 14.7025 21.5434C13.9967 21.2555 13.3481 21.113 12.7551 21.113C12.1332 21.113 11.4661 21.2555 10.7526 21.5434C10.0381 21.8327 9.46241 21.9834 9.02229 21.9984C8.35294 22.0269 7.68577 21.7322 7.01981 21.113C6.59477 20.7422 6.06312 20.1067 5.42622 19.2063C4.74289 18.2449 4.18109 17.13 3.74097 15.8589C3.26961 14.486 3.03333 13.1565 3.03333 11.8694C3.03333 10.3951 3.35191 9.12345 3.99002 8.05784C4.49153 7.20191 5.1587 6.52672 5.99372 6.03105C6.82875 5.53539 7.73099 5.2828 8.70262 5.26664C9.23427 5.26664 9.93146 5.43109 10.7979 5.75429C11.6618 6.07858 12.2165 6.24303 12.4598 6.24303C12.6416 6.24303 13.2578 6.05074 14.3025 5.66738C15.2905 5.31186 16.1243 5.16466 16.8073 5.22264C18.6583 5.37202 20.0488 6.10167 20.9736 7.41619C19.3182 8.4192 18.4994 9.82403 18.5157 11.6262C18.5306 13.03 19.0398 14.1981 20.0407 15.1256C20.4942 15.5561 21.0008 15.8888 21.5643 16.1251C21.4421 16.4795 21.3131 16.819 21.176 17.1449ZM16.9309 0.440369C16.9309 1.54062 16.5289 2.56792 15.7277 3.51878C14.7608 4.64917 13.5914 5.30236 12.3231 5.19929C12.307 5.06729 12.2976 4.92837 12.2976 4.78239C12.2976 3.72615 12.7574 2.59576 13.574 1.67152C13.9816 1.20356 14.5001 0.814453 15.1289 0.504058C15.7562 0.198295 16.3497 0.0292007 16.9078 0.000244141C16.9241 0.147331 16.9309 0.294426 16.9309 0.440355V0.440369Z" fill="black"/>
</svg>
