<svg width="25" height="24" viewBox="0 0 25 24" fill="none" xmlns="http://www.w3.org/2000/svg">
<g clip-path="url(#clip0_31_36)">
<path d="M24.4327 12.2764C24.4327 11.4607 24.3665 10.6406 24.2254 9.83807H12.9066V14.4591H19.3884C19.1194 15.9494 18.2552 17.2678 16.9897 18.1056V21.1039H20.8567C23.1275 19.0139 24.4327 15.9274 24.4327 12.2764Z" fill="#4285F4"/>
<path d="M12.9066 24.0008C16.1431 24.0008 18.8725 22.9382 20.8611 21.1039L16.9941 18.1055C15.9182 18.8375 14.5293 19.252 12.911 19.252C9.78042 19.252 7.126 17.1399 6.17358 14.3003H2.18314V17.3912C4.22025 21.4434 8.36943 24.0008 12.9066 24.0008Z" fill="#34A853"/>
<path d="M6.16919 14.3003C5.66652 12.8099 5.66652 11.1961 6.16919 9.70575V6.61481H2.18315C0.481146 10.0056 0.481146 14.0004 2.18315 17.3912L6.16919 14.3003Z" fill="#FBBC04"/>
<path d="M12.9066 4.74966C14.6175 4.7232 16.271 5.36697 17.51 6.54867L20.936 3.12262C18.7666 1.0855 15.8873 -0.034466 12.9066 0.000808666C8.36943 0.000808666 4.22025 2.55822 2.18314 6.61481L6.16917 9.70575C7.11718 6.86173 9.77601 4.74966 12.9066 4.74966Z" fill="#EA4335"/>
</g>
<defs>
<clipPath id="clip0_31_36">
<rect width="24" height="24" fill="white" transform="translate(0.666656)"/>
</clipPath>
</defs>
</svg>
